<?xml version="1.0" encoding="UTF-8"?><svg id="a" xmlns="http://www.w3.org/2000/svg" viewBox="0 0 529.69 167.6"><defs><style>.t,.u,.v{fill:#fff;stroke:#fff;}.u{stroke-width:4px;}.v{stroke-width:20px;}</style></defs><path id="b" class="t" d="M509.84,167.1S430.58,17.15,259.84,17.15,9.84,167.1,9.84,167.1H29.8S102.74,24.39,259.84,24.39s230.04,142.7,230.04,142.7h19.96Z"/><path id="c" class="v" d="M0,10c522.65,0,519.69,0,519.69,0"/><path id="d" class="u" d="M94.28,19.42v56.77"/><path id="e" class="u" d="M124.45,19.42V60.56"/><path id="f" class="u" d="M154.62,19.42v23.49"/><path id="g" class="u" d="M184.79,19.42v12.27"/><path id="h" class="u" d="M214.96,19.42v6.64"/><path id="i" class="u" d="M245.13,19.42v2.86"/><path id="j" class="u" d="M275.3,19.42v4.37"/><path id="k" class="u" d="M305.47,19.42v5.38"/><path id="l" class="u" d="M335.64,19.42v12.46"/><path id="m" class="u" d="M365.81,19.42v25.59"/><path id="n" class="u" d="M395.98,19.42l.51,40.74"/><path id="o" class="u" d="M426.66,19.42l.51,62.96"/><path id="p" class="u" d="M64.11,19.42V103.6"/><path id="q" class="u" d="M457.34,19.42V108.65"/><path id="r" class="u" d="M33.94,19.42v124.89"/><path id="s" class="u" d="M487.51,19.42v124.89"/></svg>